<svg width="1512" height="922" viewBox="0 0 1512 922" fill="none" xmlns="http://www.w3.org/2000/svg">
<g clip-path="url(#clip0_890_7443)">
<g opacity="0.12448">
<path d="M1263.76 31.2352C1263.76 -88.6133 1360.92 -185.77 1480.76 -185.77C1600.61 -185.77 1697.77 -88.6133 1697.77 31.2352C1697.77 151.084 1600.61 248.24 1480.76 248.24C1360.92 248.24 1263.76 151.084 1263.76 31.2352Z" fill="url(#paint0_linear_890_7443)"/>
</g>
<g opacity="0.0849094">
<path d="M-136.629 890.217C-136.629 797.507 -61.473 722.352 31.2364 722.352C123.946 722.352 199.102 797.507 199.102 890.217C199.102 982.926 123.946 1058.08 31.2364 1058.08C-61.473 1058.08 -136.629 982.926 -136.629 890.217Z" fill="url(#paint1_linear_890_7443)"/>
</g>
<path d="M1018.66 273.624C1018.66 239.122 1046.63 211.152 1081.13 211.152C1115.64 211.152 1143.6 239.122 1143.6 273.624C1143.6 308.126 1115.64 336.095 1081.13 336.095C1046.63 336.095 1018.66 308.126 1018.66 273.624Z" fill="#219580" fill-opacity="0.05"/>
<path d="M374.233 572.478C374.233 546.602 395.21 525.625 421.087 525.625C446.963 525.625 467.94 546.602 467.94 572.478C467.94 598.355 446.963 619.332 421.087 619.332C395.21 619.332 374.233 598.355 374.233 572.478Z" fill="#346079" fill-opacity="0.05"/>
<g opacity="0.1">
<g clip-path="url(#clip1_890_7443)">
<path d="M0 775.686C378 838.158 756 713.215 1134 775.686C1323 806.922 1449 786.098 1512 775.686V921.453H0V775.686Z" fill="#219580"/>
</g>
</g>
</g>
<defs>
<linearGradient id="paint0_linear_890_7443" x1="1480.76" y1="-185.77" x2="1480.76" y2="248.24" gradientUnits="userSpaceOnUse">
<stop stop-color="#219580"/>
<stop offset="1" stop-color="#346079"/>
</linearGradient>
<linearGradient id="paint1_linear_890_7443" x1="31.2364" y1="722.352" x2="31.2364" y2="1058.08" gradientUnits="userSpaceOnUse">
<stop stop-color="#219580"/>
<stop offset="1" stop-color="#346079"/>
</linearGradient>
<clipPath id="clip0_890_7443">
<rect width="1512" height="921.451" fill="white"/>
</clipPath>
<clipPath id="clip1_890_7443">
<rect width="1512" height="249.885" fill="white" transform="translate(0 671.566)"/>
</clipPath>
</defs>
</svg>
