<svg width="228" height="50" viewBox="0 0 228 50" fill="none" xmlns="http://www.w3.org/2000/svg">
<g clip-path="url(#clip0_2022_158)">
<mask id="mask0_2022_158" style="mask-type:luminance" maskUnits="userSpaceOnUse" x="0" y="0" width="228" height="50">
<path d="M228 0H0V50H228V0Z" fill="white"/>
</mask>
<g mask="url(#mask0_2022_158)">
<path d="M46.9308 26.2227L43.0514 19.7084C42.5457 18.8608 42.278 17.8902 42.278 16.9069V10.4009C42.278 4.65796 37.6084 0 31.8509 0H6.64976C2.97859 0 0 2.97109 0 6.63304V19.1786H12.9129V7.44256H20.3105C24.3598 7.44256 27.6444 10.7189 27.6444 14.758V19.1786H30.8948C34.1156 19.1786 36.7288 21.7852 36.7288 24.9979C36.7288 28.2106 34.1156 30.8172 30.8948 30.8172H27.6444V35.2377C27.6444 39.2769 24.3598 42.5532 20.3105 42.5532H12.9129V30.8172H0V39.6923C0 45.3844 4.62722 49.9957 10.3294 49.9957H27.6444C27.7888 47.7409 29.6626 45.9862 31.9231 45.9862H39.7584C43.2979 43.7907 41.1308 40.1331 41.9891 39.1158C43.54 37.5435 42.6477 36.8865 42.4141 35.8524C42.3461 35.5472 42.5628 35.2505 42.8729 35.1954C44.6235 34.8775 43.2341 31.2919 43.2341 31.2919C43.4721 30.584 44.7128 29.9017 45.9068 29.3889C47.139 28.8633 47.6149 27.3672 46.9308 26.2185V26.2227Z" fill="url(#paint0_linear_2022_158)"/>
<path d="M65.7754 20.8782H63.192V2.39468H67.1733L72.5484 16.7161L77.9192 2.39892H81.8453V20.8782H79.3256L79.5041 4.83174L73.4832 20.8782H71.5753L65.58 4.83174L65.7711 20.8782H65.7754ZM87.3946 14.8216C87.5985 15.9787 88.1254 16.9195 88.971 17.6443C89.8208 18.3691 90.8236 18.7336 91.9878 18.7336C92.8291 18.7336 93.5854 18.5343 94.2654 18.1402C94.9447 17.746 95.4889 17.1866 95.8923 16.4618H98.7306C98.0935 17.9961 97.1974 19.1786 96.0331 20.0009C94.8687 20.8231 93.5217 21.2343 91.9878 21.2343C90.951 21.2343 90.0078 21.0562 89.1579 20.6959C88.3039 20.3357 87.5263 19.789 86.8209 19.0557C86.1751 18.3733 85.6609 17.5765 85.2828 16.6738C85.1044 16.2076 84.9683 15.7498 84.8749 15.292C84.7814 14.8342 84.7347 14.368 84.7347 13.8849C84.7347 12.9143 84.9004 12.003 85.2318 11.1469C85.5633 10.295 86.0604 9.51085 86.7189 8.80309C87.4158 8.03595 88.2019 7.45953 89.0814 7.07808C89.9609 6.69662 90.9128 6.5059 91.9368 6.5059C93.1648 6.5059 94.3076 6.78987 95.3613 7.35357C96.4149 7.92151 97.2866 8.71832 97.9828 9.74821C98.1789 10.0449 98.3525 10.3713 98.5054 10.7315C98.6583 11.0918 98.7859 11.4606 98.8882 11.842C99.0834 12.6007 99.1819 13.4653 99.1819 14.4274V14.8216H87.3988H87.3946ZM96.4149 12.5626C96.1091 11.414 95.5696 10.5281 94.8011 9.90085C94.027 9.27355 93.1011 8.95991 92.0133 8.95991C90.9255 8.95991 89.9567 9.27779 89.1579 9.91359C88.3548 10.5493 87.794 11.4351 87.471 12.5626H96.4149ZM104.408 20.8782H101.888V6.91702H104.306V8.50216C104.833 7.87489 105.415 7.41714 106.048 7.1247C106.681 6.83225 107.403 6.68814 108.211 6.68814C110.042 6.68814 111.449 7.22642 112.43 8.29873C113.412 9.37103 113.901 10.9138 113.901 12.9186V20.8782H111.368V13.4653C111.368 11.9861 111.091 10.8884 110.539 10.1721C109.987 9.45576 109.132 9.09978 107.981 9.09978C106.741 9.09978 105.835 9.51934 105.266 10.3628C104.692 11.2062 104.408 12.5964 104.408 14.5334V20.8782ZM118.226 20.8782V9.20149H116.254V6.91702H118.226V2.39468H120.72V6.91278H122.704V9.19726H120.72V20.874H118.226V20.8782ZM136.373 20.8782V19.1659C135.728 19.8356 135.005 20.3399 134.202 20.6832C133.399 21.0265 132.558 21.196 131.678 21.196C129.584 21.196 127.837 20.4967 126.443 19.0939C125.05 17.6952 124.348 15.9405 124.348 13.8341C124.348 12.8423 124.523 11.9098 124.871 11.0367C125.22 10.1593 125.717 9.38798 126.358 8.71832C127.047 7.98932 127.811 7.45105 128.657 7.09503C129.503 6.739 130.459 6.56099 131.525 6.56099C132.486 6.56099 133.365 6.72629 134.163 7.06112C134.963 7.39596 135.702 7.9088 136.373 8.60389V6.91702H138.919V20.8782H136.373ZM126.958 13.8001C126.958 15.2115 127.425 16.394 128.364 17.3476C129.303 18.3012 130.45 18.7802 131.806 18.7802C133.034 18.7802 134.126 18.297 135.077 17.3349C136.03 16.3728 136.501 15.2496 136.501 13.9739C136.501 12.6134 136.033 11.4436 135.094 10.4645C134.155 9.48547 133.042 8.99381 131.755 8.99381C130.468 8.99381 129.29 9.46 128.356 10.3882C127.421 11.3164 126.958 12.4566 126.958 13.8001ZM142.369 20.8782V2.39468H144.863V20.8782H142.369ZM155.01 20.8782H152.325V2.39468H155.01V10.2399H162.569V2.39468H165.254V20.8782H162.569V12.8676H155.01V20.8782ZM170.752 14.8216C170.957 15.9787 171.483 16.9195 172.329 17.6443C173.179 18.3691 174.182 18.7336 175.346 18.7336C176.187 18.7336 176.943 18.5343 177.623 18.1402C178.304 17.746 178.847 17.1866 179.25 16.4618H182.089C181.451 17.9961 180.555 19.1786 179.391 20.0009C178.227 20.8231 176.879 21.2343 175.346 21.2343C174.309 21.2343 173.365 21.0562 172.516 20.6959C171.661 20.3357 170.885 19.789 170.179 19.0557C169.533 18.3733 169.019 17.5765 168.64 16.6738C168.462 16.2076 168.326 15.7498 168.233 15.292C168.139 14.8342 168.092 14.368 168.092 13.8849C168.092 12.9143 168.258 12.003 168.59 11.1469C168.921 10.295 169.418 9.51085 170.077 8.80309C170.774 8.03595 171.56 7.45953 172.439 7.07808C173.318 6.69662 174.271 6.5059 175.294 6.5059C176.523 6.5059 177.665 6.78987 178.719 7.35357C179.773 7.92151 180.645 8.71832 181.341 9.74821C181.537 10.0449 181.71 10.3713 181.863 10.7315C182.017 11.0918 182.144 11.4606 182.246 11.842C182.441 12.6007 182.54 13.4653 182.54 14.4274V14.8216H170.757H170.752ZM179.773 12.5626C179.467 11.414 178.927 10.5281 178.159 9.90085C177.385 9.27355 176.459 8.95991 175.371 8.95991C174.283 8.95991 173.315 9.27779 172.516 9.91359C171.713 10.5493 171.152 11.4351 170.829 12.5626H179.773ZM196.557 20.8782V19.1659C195.911 19.8356 195.189 20.3399 194.385 20.6832C193.582 21.0265 192.742 21.196 191.862 21.196C189.767 21.196 188.02 20.4967 186.627 19.0939C185.234 17.6952 184.532 15.9405 184.532 13.8341C184.532 12.8423 184.706 11.9098 185.054 11.0367C185.403 10.1593 185.901 9.38798 186.542 8.71832C187.23 7.98932 187.995 7.45105 188.84 7.09503C189.687 6.739 190.643 6.56099 191.709 6.56099C192.669 6.56099 193.549 6.72629 194.348 7.06112C195.146 7.39596 195.886 7.9088 196.557 8.60389V6.91702H199.102V20.8782H196.557ZM187.141 13.8001C187.141 15.2115 187.608 16.394 188.548 17.3476C189.487 18.3012 190.634 18.7802 191.989 18.7802C193.217 18.7802 194.309 18.297 195.261 17.3349C196.213 16.3728 196.684 15.2496 196.684 13.9739C196.684 12.6134 196.217 11.4436 195.278 10.4645C194.339 9.48547 193.226 8.99381 191.938 8.99381C190.651 8.99381 189.474 9.46 188.539 10.3882C187.605 11.3164 187.141 12.4566 187.141 13.8001ZM202.552 20.8782V2.39468H205.047V20.8782H202.552ZM209.423 20.8782V9.20149H207.452V6.91702H209.423V2.39468H211.917V6.91278H213.902V9.19726H211.917V20.874H209.423V20.8782ZM218.775 20.8782H216.256V2.39468H218.775V8.50216C219.175 7.91728 219.702 7.468 220.352 7.15861C221.006 6.84496 221.762 6.68814 222.629 6.68814C224.316 6.68814 225.634 7.23065 226.58 8.31144C227.528 9.39647 228 10.9138 228 12.8676V20.8782H225.481V13.6814C225.481 12.1344 225.217 10.9816 224.69 10.2272C224.163 9.47274 223.36 9.09554 222.272 9.09554C221.609 9.09554 221.023 9.24812 220.509 9.55331C219.995 9.8584 219.591 10.2992 219.294 10.8714C219.124 11.1935 218.996 11.6089 218.907 12.1217C218.818 12.6345 218.775 13.4357 218.775 14.5292V20.874V20.8782Z" fill="url(#paint1_linear_2022_158)"/>
<path d="M67.9381 47.2069H65.2528V31.2113H61.777V28.7234H71.3969V31.2113H67.9339V47.2069H67.9381ZM75.459 41.1503C75.6629 42.3074 76.1898 43.2483 77.0354 43.973C77.8852 44.6978 78.8879 45.0623 80.0522 45.0623C80.8935 45.0623 81.6498 44.8631 82.3297 44.469C83.0096 44.0747 83.5534 43.5153 83.9571 42.7906H86.7955C86.1581 44.3248 85.2615 45.5074 84.0973 46.3296C82.9331 47.1518 81.5861 47.5629 80.0522 47.5629C79.0154 47.5629 78.0722 47.3849 77.2223 47.0246C76.3683 46.6644 75.5906 46.1176 74.8853 45.3844C74.2395 44.7021 73.7254 43.9052 73.3471 43.0024C73.1687 42.5362 73.0327 42.0785 72.9393 41.6207C72.8458 41.163 72.7991 40.6968 72.7991 40.2136C72.7991 39.243 72.9648 38.3318 73.2962 37.4757C73.6276 36.6237 74.1248 35.8396 74.7834 35.1318C75.4802 34.3646 76.2663 33.7882 77.1458 33.4068C78.0254 33.0254 78.9772 32.8346 80.0012 32.8346C81.2292 32.8346 82.3722 33.1186 83.426 33.6823C84.4797 34.2502 85.3507 35.0471 86.0476 36.077C86.243 36.3737 86.4173 36.7 86.5702 37.0603C86.7232 37.4206 86.8507 37.7892 86.9527 38.1707C87.1481 38.9294 87.2459 39.794 87.2459 40.7561V41.1503H75.4632H75.459ZM84.4797 38.8912C84.1738 37.7426 83.6342 36.8568 82.8651 36.2295C82.0918 35.6023 81.1655 35.2887 80.0777 35.2887C78.9899 35.2887 78.0211 35.6065 77.2223 36.2423C76.4192 36.878 75.8584 37.7639 75.5355 38.8912H84.4797ZM89.9525 47.2069V28.7234H92.4467V47.2069H89.9525ZM97.843 41.1503C98.0466 42.3074 98.5739 43.2483 99.4193 43.973C100.269 44.6978 101.272 45.0623 102.436 45.0623C103.277 45.0623 104.034 44.8631 104.714 44.469C105.393 44.0747 105.937 43.5153 106.341 42.7906H109.179C108.542 44.3248 107.645 45.5074 106.482 46.3296C105.317 47.1518 103.97 47.5629 102.436 47.5629C101.399 47.5629 100.456 47.3849 99.606 47.0246C98.7522 46.6644 97.9743 46.1176 97.2697 45.3844C96.6232 44.7021 96.1091 43.9052 95.7309 43.0024C95.5527 42.5362 95.4166 42.0785 95.3237 41.6207C95.2299 41.163 95.183 40.6968 95.183 40.2136C95.183 39.243 95.3491 38.3318 95.6803 37.4757C96.0115 36.6237 96.5088 35.8396 97.1674 35.1318C97.8646 34.3646 98.6499 33.7882 99.53 33.4068C100.409 33.0254 101.362 32.8346 102.385 32.8346C103.613 32.8346 104.756 33.1186 105.81 33.6823C106.864 34.2502 107.735 35.0471 108.431 36.077C108.627 36.3737 108.801 36.7 108.954 37.0603C109.107 37.4206 109.235 37.7892 109.337 38.1707C109.532 38.9294 109.63 39.794 109.63 40.7561V41.1503H97.8477H97.843ZM106.864 38.8912C106.558 37.7426 106.018 36.8568 105.249 36.2295C104.476 35.6023 103.55 35.2887 102.462 35.2887C101.374 35.2887 100.405 35.6065 99.606 36.2423C98.8028 36.878 98.2427 37.7639 97.9199 38.8912H106.864ZM115.847 47.2069H113.301V44.0832H115.847V47.2069ZM133.599 42.4473C133.012 44.1087 132.145 45.3802 130.999 46.2533C129.847 47.1264 128.44 47.5629 126.779 47.5629C125.743 47.5629 124.799 47.3849 123.941 47.0289C123.516 46.8508 123.116 46.6305 122.738 46.372C122.36 46.1091 121.995 45.7871 121.638 45.4098C120.992 44.7274 120.478 43.9307 120.1 43.0279C119.921 42.5617 119.785 42.104 119.692 41.6462C119.598 41.1884 119.552 40.7223 119.552 40.239C119.552 39.2854 119.717 38.3784 120.048 37.5265C120.38 36.6746 120.878 35.8905 121.535 35.1826C122.258 34.4156 123.066 33.8307 123.966 33.4323C124.867 33.0339 125.827 32.8346 126.855 32.8346C128.448 32.8346 129.838 33.2754 131.016 34.1527C132.197 35.0301 133.055 36.272 133.599 37.874H130.837C130.404 37.0222 129.838 36.3864 129.137 35.9668C128.436 35.5472 127.603 35.3353 126.635 35.3353C125.393 35.3353 124.34 35.8057 123.464 36.7423C122.59 37.679 122.156 38.8361 122.156 40.2093C122.156 41.5826 122.598 42.7608 123.478 43.689C124.361 44.6173 125.457 45.0835 126.775 45.0835C127.642 45.0835 128.432 44.8546 129.15 44.4011C129.868 43.9476 130.429 43.2949 130.837 42.443H133.599V42.4473ZM135.813 40.239C135.813 39.2557 135.978 38.336 136.309 37.4714C136.641 36.6068 137.143 35.8226 137.818 35.1106C138.494 34.3986 139.275 33.8391 140.168 33.4238C141.06 33.0084 141.978 32.8007 142.93 32.8007C143.958 32.8007 144.901 32.9787 145.768 33.3389C146.635 33.6992 147.417 34.2375 148.122 34.958C148.801 35.6531 149.324 36.4415 149.698 37.3315C150.073 38.2216 150.26 39.1286 150.26 40.061C150.26 40.9935 150.09 41.9683 149.749 42.8668C149.409 43.7654 148.925 44.5494 148.3 45.2276C147.961 45.6006 147.586 45.9354 147.175 46.2363C146.763 46.5373 146.338 46.7916 145.896 47.0035C145.003 47.4019 144.064 47.601 143.07 47.601C142.076 47.601 141.098 47.4189 140.231 47.0501C139.364 46.6813 138.591 46.1389 137.903 45.4183C137.257 44.7317 136.743 43.9391 136.365 43.0322C136.186 42.5659 136.05 42.104 135.957 41.6504C135.864 41.1926 135.817 40.7223 135.817 40.2433L135.813 40.239ZM138.421 40.2136C138.421 41.608 138.863 42.7736 139.752 43.706C140.639 44.6385 141.744 45.1005 143.066 45.1005C144.387 45.1005 145.454 44.63 146.329 43.6933C147.208 42.7523 147.646 41.5869 147.646 40.1882C147.646 38.7895 147.208 37.5986 146.329 36.6788C145.449 35.759 144.353 35.3013 143.04 35.3013C141.727 35.3013 140.656 35.7675 139.764 36.7042C138.868 37.6409 138.421 38.8107 138.421 40.2136ZM161.57 40.1627C161.57 38.4716 161.328 37.2383 160.84 36.4626C160.351 35.6871 159.586 35.3013 158.541 35.3013C157.495 35.3013 156.654 35.6913 156.136 36.4711C155.617 37.251 155.358 38.4462 155.358 40.0653V47.2111H152.966V33.25H155.205V34.8859C155.656 34.2756 156.183 33.8137 156.781 33.4958C157.385 33.1779 158.057 33.0211 158.804 33.0211C159.824 33.0211 160.665 33.2118 161.337 33.5933C162.008 33.9747 162.565 34.5893 163.015 35.4327C163.439 34.6274 164.014 34.0256 164.731 33.6229C165.454 33.2203 166.321 33.0211 167.341 33.0211C168.917 33.0211 170.183 33.5339 171.13 34.5639C172.083 35.5938 172.554 36.967 172.554 38.6836V47.2154H170.021V39.0777C170.021 37.8783 169.762 36.9458 169.245 36.2931C168.726 35.6361 167.995 35.3098 167.056 35.3098C165.968 35.3098 165.19 35.6616 164.715 36.3652C164.239 37.0688 164.001 38.2512 164.001 39.9211V47.2196H161.557V40.1755L161.57 40.1627Z" fill="url(#paint2_linear_2022_158)"/>
</g>
</g>
<defs>
<linearGradient id="paint0_linear_2022_158" x1="11.7487" y1="38.4505" x2="22.6128" y2="21.4424" gradientUnits="userSpaceOnUse">
<stop offset="0.21" stop-color="#219580"/>
<stop offset="1" stop-color="#346079"/>
</linearGradient>
<linearGradient id="paint1_linear_2022_158" x1="157.878" y1="-13.5204" x2="143.583" y2="15.9052" gradientUnits="userSpaceOnUse">
<stop stop-color="#219580"/>
<stop offset="1" stop-color="#346079"/>
</linearGradient>
<linearGradient id="paint2_linear_2022_158" x1="125.309" y1="21.2978" x2="115.517" y2="41.4579" gradientUnits="userSpaceOnUse">
<stop stop-color="#219580"/>
<stop offset="1" stop-color="#346079"/>
</linearGradient>
<clipPath id="clip0_2022_158">
<rect width="228" height="50" fill="white"/>
</clipPath>
</defs>
</svg>
